<svg width="62" height="51" viewBox="0 0 62 51" fill="none" xmlns="http://www.w3.org/2000/svg">
<path d="M30.9752 0C13.8681 0 0 10.9785 0 24.5211C0 30.4503 2.65838 35.888 7.08298 40.128L7.08247 40.1276L1.85175 50.5371L13.4176 44.7252L13.4172 44.7248L13.4161 44.724C18.8179 47.604 24.8538 49.0883 30.9752 49.0421C48.0823 49.0421 61.9503 38.0637 61.9503 24.5211C61.9503 10.9785 48.0823 0 30.9752 0ZM30.9752 11.0001C32.0352 11.0001 33.0715 11.3145 33.9529 11.9034C34.8343 12.4924 35.5213 13.3295 35.927 14.3088C36.3326 15.2882 36.4388 16.3659 36.232 17.4056C36.0252 18.4453 35.5147 19.4003 34.7651 20.1499C34.0155 20.8995 33.0605 21.41 32.0208 21.6168C30.9811 21.8236 29.9034 21.7174 28.9241 21.3118C27.9447 20.9061 27.1076 20.2191 26.5187 19.3377C25.9297 18.4563 25.6154 17.42 25.6154 16.3599C25.6154 14.9384 26.1801 13.5751 27.1852 12.57C28.1904 11.5648 29.5537 11.0001 30.9752 11.0001ZM40.3548 38.042H21.5955V31.3722C21.5955 30.2454 21.8175 29.1296 22.2487 28.0886C22.6799 27.0475 23.3119 26.1016 24.1087 25.3049C24.9055 24.5081 25.8514 23.8761 26.8924 23.4448C27.9334 23.0136 29.0492 22.7917 30.176 22.7917H31.7743C34.05 22.7917 36.2325 23.6957 37.8416 25.3049C39.4508 26.914 40.3548 29.0965 40.3548 31.3722V38.042Z" fill="#009A88"/>
</svg>
