<svg width="51" height="51" viewBox="0 0 51 51" fill="none" xmlns="http://www.w3.org/2000/svg">
<path d="M43.1233 11.3185C41.9995 11.3098 40.9234 10.8632 40.1239 10.0734C39.3804 9.32038 38.9451 8.31677 38.9032 7.25938C38.8613 6.20198 39.216 5.16709 39.8975 4.3576C36.7813 2.09571 33.1745 0.602567 29.3714 0C29.2838 0.934047 28.8891 1.81274 28.2492 2.49875C27.6093 3.18476 26.7601 3.63943 25.8344 3.79168V8.09269C25.8344 8.28031 25.7598 8.46024 25.6272 8.5929C25.4945 8.72557 25.3146 8.8001 25.127 8.8001C24.9394 8.8001 24.7594 8.72557 24.6268 8.5929C24.4941 8.46024 24.4196 8.28031 24.4196 8.09269V3.79168C23.4939 3.63943 22.6447 3.18476 22.0047 2.49875C21.3648 1.81274 20.9702 0.934047 20.8825 0C15.6671 0.865812 10.8518 3.33774 7.10839 7.07104C3.36495 10.8043 0.879962 15.6128 0 20.826C0.944128 20.9016 1.83582 21.2909 2.53317 21.9318C3.23052 22.5728 3.69344 23.4286 3.84827 24.363H8.14929C8.3369 24.363 8.51683 24.4375 8.6495 24.5702C8.78216 24.7028 8.85669 24.8828 8.85669 25.0704C8.85669 25.258 8.78216 25.4379 8.6495 25.5706C8.51683 25.7032 8.3369 25.7778 8.14929 25.7778H3.84827C3.69471 26.7078 3.23592 27.5603 2.54425 28.2007C1.85258 28.8412 0.96739 29.2331 0.0282968 29.3148C0.649381 33.1262 2.15115 36.7401 4.4142 39.8692C5.23155 39.2562 6.24261 38.9586 7.26173 39.031C8.28086 39.1035 9.23966 39.5411 9.96211 40.2635C10.6846 40.986 11.1222 41.9448 11.1946 42.9639C11.267 43.983 10.9694 44.9941 10.3564 45.8114C14.659 48.9037 19.8285 50.5575 25.127 50.5369C31.1481 50.5408 36.9758 48.4112 41.5758 44.5261C46.1758 40.641 49.2504 35.2517 50.2539 29.3148C49.3098 29.2478 48.4167 28.8609 47.7222 28.2178C47.0277 27.5747 46.5732 26.714 46.434 25.7778H42.1046C41.917 25.7778 41.7371 25.7032 41.6044 25.5706C41.4718 25.4379 41.3972 25.258 41.3972 25.0704C41.3972 24.8828 41.4718 24.7028 41.6044 24.5702C41.7371 24.4375 41.917 24.363 42.1046 24.363H46.434C46.5732 23.4268 47.0277 22.566 47.7222 21.923C48.4167 21.2799 49.3098 20.8929 50.2539 20.826C49.6151 17.0196 48.1149 13.4096 45.868 10.2715C45.1126 10.9455 44.1357 11.3182 43.1233 11.3185ZM35.738 35.738C35.0915 36.3944 34.3206 36.9152 33.4703 37.2698C32.62 37.6245 31.7075 37.806 30.7862 37.8036H19.4677C17.5916 37.8036 15.7923 37.0583 14.4656 35.7317C13.139 34.4051 12.3937 32.6057 12.3937 30.7296C12.3937 28.8534 13.139 27.0541 14.4656 25.7275C15.7923 24.4009 17.5916 23.6556 19.4677 23.6556C18.5557 22.4278 18.06 20.9406 18.0529 19.4111C18.0529 17.535 18.7982 15.7357 20.1249 14.409C21.4515 13.0824 23.2508 12.3371 25.127 12.3371C27.0031 12.3371 28.8024 13.0824 30.1291 14.409C31.4557 15.7357 32.201 17.535 32.201 19.4111C32.194 20.9406 31.6982 22.4278 30.7862 23.6556C32.6623 23.6556 34.4617 24.4009 35.7883 25.7275C37.1149 27.0541 37.8602 28.8534 37.8602 30.7296C37.8641 31.6646 37.6779 32.5907 37.3131 33.4516C36.9483 34.3125 36.4125 35.0904 35.738 35.738Z" fill="#FD5803"/>
</svg>
