<svg width="51" height="51" viewBox="0 0 51 51" fill="none" xmlns="http://www.w3.org/2000/svg">
<path d="M26.0572 14.2138C26.0572 16.3952 24.2904 18.162 22.1091 18.162C19.9277 18.162 18.1609 16.3952 18.1609 14.2138C18.1609 12.0325 19.9277 10.2657 22.1091 10.2657C24.2904 10.2657 26.0572 12.0325 26.0572 14.2138Z" fill="#FD5803"/>
<path d="M40.2712 0.000333541C34.6096 0.000333541 30.0062 3.89715 30.0062 8.68655C30.0062 10.7672 30.863 12.7373 32.4363 14.3027C31.5539 15.3904 30.7998 16.2531 30.2372 16.8137C30.0121 17.0388 29.945 17.3783 30.0674 17.6744C30.1898 17.9705 30.478 18.162 30.7978 18.162C33.0739 18.162 35.0934 17.4316 36.4715 16.7565C37.6797 17.1631 38.9589 17.3724 40.2736 17.3724C45.9352 17.3724 50.5386 13.4756 50.5386 8.68621C50.5366 3.89707 45.933 0 40.2716 0L40.2712 0.000333541ZM37.9023 11.0552C37.9023 11.4915 37.5489 11.8448 37.1127 11.8448C36.6764 11.8448 36.323 11.4915 36.323 11.0552V10.2656C36.323 9.82929 36.6764 9.47593 37.1127 9.47593C37.5489 9.47593 37.9023 9.82929 37.9023 10.2656V11.0552ZM41.0608 11.0552C41.0608 11.4915 40.7075 11.8448 40.2712 11.8448C39.8349 11.8448 39.4816 11.4915 39.4816 11.0552V10.2656C39.4816 9.82929 39.8349 9.47593 40.2712 9.47593C40.7075 9.47593 41.0608 9.82929 41.0608 10.2656V11.0552ZM44.2194 11.0552C44.2194 11.4915 43.866 11.8448 43.4297 11.8448C42.9935 11.8448 42.6401 11.4915 42.6401 11.0552V10.2656C42.6401 9.82929 42.9935 9.47593 43.4297 9.47593C43.866 9.47593 44.2194 9.82929 44.2194 10.2656V11.0552Z" fill="#FD5803"/>
<path d="M22.1093 41.0614C17.3202 41.0614 13.4231 44.9582 13.4231 49.7476C13.4231 50.1839 13.7765 50.5372 14.2127 50.5372H30.0054C30.4417 50.5372 30.795 50.1839 30.795 49.7476C30.795 44.9585 26.8987 41.0614 22.1093 41.0614Z" fill="#FD5803"/>
<path d="M35.533 41.0612C33.401 41.0612 31.4467 41.8331 29.9346 43.1104C31.4546 44.9009 32.3745 47.2184 32.3745 49.7473V50.5369H43.4294C43.8657 50.5369 44.219 50.1836 44.219 49.7473C44.219 44.9582 40.3224 41.0612 35.533 41.0612Z" fill="#FD5803"/>
<path d="M8.68597 41.0614C3.89683 41.0614 -0.000244141 44.9582 -0.000244141 49.7476C-0.000244141 50.1839 0.353117 50.5372 0.789389 50.5372H11.8442V49.7476C11.8442 47.2208 12.7642 44.9032 14.2842 43.1107C12.772 41.8315 10.8179 41.0614 8.68597 41.0614Z" fill="#FD5803"/>
<path d="M22.1097 34.7443C19.9303 34.7443 18.1615 36.513 18.1615 38.6924C18.1615 39.2096 18.2622 39.7051 18.4438 40.1591C19.5828 39.7209 20.8186 39.4821 22.1097 39.4821C23.4007 39.4821 24.6365 39.7229 25.7755 40.1591C25.9571 39.7051 26.0578 39.2116 26.0578 38.6924C26.0578 36.513 24.289 34.7443 22.1097 34.7443Z" fill="#FD5803"/>
<path d="M8.68583 39.4821C9.9453 39.4821 11.187 39.7189 12.3497 40.1631C12.5313 39.7071 12.634 39.2116 12.634 38.6924C12.634 36.513 10.8652 34.7443 8.68583 34.7443C6.50448 34.7443 4.73767 36.513 4.73767 38.6924C4.73767 39.2096 4.83835 39.7051 5.01996 40.1591C6.159 39.7209 7.39478 39.4821 8.68583 39.4821Z" fill="#FD5803"/>
<path d="M35.533 39.4821C36.8241 39.4821 38.0598 39.7229 39.1989 40.1591C39.3805 39.7051 39.4812 39.2116 39.4812 38.6924C39.4812 36.513 37.7124 34.7443 35.533 34.7443C33.3536 34.7443 31.5848 36.513 31.5848 38.6924C31.5848 39.2136 31.6875 39.7071 31.8691 40.1631C33.0319 39.717 34.2735 39.4821 35.533 39.4821Z" fill="#FD5803"/>
<path d="M33.8633 33.4235L33.9541 30.7961H10.2651L10.3559 33.4235C12.5906 34.1342 14.2133 36.2268 14.2133 38.6925C14.2133 39.4012 14.0791 40.0941 13.8145 40.7534L13.779 40.8422C14.3159 41.1502 14.8253 41.5055 15.303 41.9083L15.3977 41.9872C15.8972 41.5549 16.44 41.1719 17.0145 40.8423L16.977 40.7475C16.7144 40.0921 16.5822 39.4012 16.5822 38.6945C16.5822 35.6465 19.0616 33.1668 22.1099 33.1668C25.1581 33.1668 27.6375 35.6462 27.6375 38.6945C27.6375 39.4012 27.5033 40.0921 27.2427 40.7475L27.2052 40.8423C27.7816 41.1739 28.3225 41.5569 28.822 41.9872L28.9167 41.9083C29.3945 41.5055 29.9038 41.1502 30.4407 40.8422L30.4052 40.7534C30.1406 40.096 30.0064 39.4031 30.0064 38.6925C30.0064 36.2269 31.6286 34.1324 33.8633 33.4235Z" fill="#FD5803"/>
<path d="M8.16832 28.5577C8.23149 28.9387 8.56116 29.2171 8.94612 29.2171H35.2686C35.6555 29.2171 35.9832 28.9367 36.0464 28.5577L36.3109 26.9784C36.3622 26.6725 36.23 26.3586 35.9556 26.1809C35.8233 26.096 35.6673 26.0585 35.5094 26.0585H30.7559C30.4538 22.7223 28.2586 19.9249 25.256 18.7525C24.3617 19.3743 23.2779 19.7395 22.1073 19.7395C20.9386 19.7395 19.8529 19.3723 18.9586 18.7525C15.9541 19.9251 13.7609 22.7224 13.4587 26.0585H11.842V20.9533L13.8595 19.609C14.2227 19.3662 14.3214 18.8766 14.0786 18.5153C13.8358 18.1521 13.3462 18.0534 12.9849 18.2962L10.6161 19.8755C10.395 20.0215 10.2647 20.2683 10.2647 20.5328V26.0605H8.7091C8.55118 26.0605 8.39522 26.1 8.26296 26.1829C7.99054 26.3586 7.8563 26.6725 7.90763 26.9804L8.17216 28.5597L8.16832 28.5577Z" fill="#FD5803"/>
</svg>
