<svg width="63" height="51" viewBox="0 0 63 51" fill="none" xmlns="http://www.w3.org/2000/svg">
<path d="M34.0765 29.695L47.431 35.1044L44.37 50.1094L42.9895 50.237C41.489 50.3795 39.6959 50.5371 38.563 50.5371C17.2934 50.5371 7.11564e-06 32.411 7.11564e-06 10.1209C-0.000869625 8.61719 0.0792737 7.11451 0.240088 5.6194L0.420149 3.93883H16.6856L19.5441 19.0789L16.8207 22.7327C19.7303 27.131 23.5725 30.8348 28.0745 33.5814L34.0765 29.695ZM43.7398 18.7413L25.3286 2.76093V25.2685H62.151V2.76093L43.7398 18.7413ZM59.5851 0H27.9019L43.7398 13.7672L59.5851 0Z" fill="#009A88"/>
</svg>
