<svg width="51" height="51" viewBox="0 0 51 51" fill="none" xmlns="http://www.w3.org/2000/svg">
<path d="M22.4958 0.15173C16.0459 0.902023 10.0567 4.10064 5.93671 9.02363C-0.473696 16.6714 -1.80316 27.215 2.48799 36.179C5.02846 41.4574 9.08268 45.5116 14.3479 48.0389C23.3251 52.3432 33.8687 51.0138 41.5164 44.6034C47.1897 39.8647 50.5331 32.6776 50.5331 25.28C50.5331 17.8824 47.1897 10.6953 41.5164 5.95663C36.2512 1.53385 29.1827 -0.611729 22.4958 0.15173ZM33.3948 14.0387C37.6728 16.7108 41.1874 18.9354 41.1874 18.9749C41.1874 19.0934 25.4838 28.1101 25.2601 28.1101C25.0363 28.1101 9.33278 19.0934 9.33278 18.9749C9.33278 18.9354 12.8736 16.6845 17.2043 13.9861C22.509 10.669 25.1548 9.08944 25.3391 9.12893C25.4838 9.15526 29.1169 11.3666 33.3948 14.0387ZM36.9752 30.9928V34.8627L31.1176 38.2456L25.2601 41.6285L19.4683 38.2851L13.6766 34.9548V31.0981C13.6766 28.992 13.7029 27.2545 13.7424 27.2545C13.7819 27.2545 16.3882 28.7419 19.5341 30.5584L25.2601 33.8623L31.0781 30.4926C34.2899 28.6497 36.9225 27.1228 36.9489 27.1228C36.962 27.1228 36.9752 28.8604 36.9752 30.9928Z" fill="#FD5803"/>
</svg>
