<svg width="51" height="51" viewBox="0 0 51 51" fill="none" xmlns="http://www.w3.org/2000/svg">
<path d="M50.5358 21.5986V46.8868C50.5358 48.9037 48.934 50.5371 46.9577 50.5371H35.9911C34.0148 50.5371 32.413 48.9037 32.413 46.8868V35.1324C32.413 33.1245 31.6076 31.3016 30.3194 29.9683C29.1146 28.741 27.4745 27.9424 25.6425 27.8431C21.5004 27.6197 18.1003 31.2949 18.1003 35.5274V46.8844C18.1003 48.9013 16.4985 50.5347 14.5222 50.5347H3.57811C1.60178 50.5347 0 48.9013 0 46.8844V21.594C0 19.3356 1.02423 17.2036 2.77497 15.8229L20.8801 1.52621C23.4565 -0.508737 27.0593 -0.508737 29.6381 1.52621L47.7565 15.8253C49.5095 17.2082 50.5337 19.3402 50.5337 21.5985L50.5358 21.5986Z" fill="#FD5803"/>
</svg>
