<svg width="52" height="52" viewBox="0 0 52 52" fill="none" xmlns="http://www.w3.org/2000/svg">
<path d="M24.2667 5.2C24.2667 6.15769 25.0423 6.93333 26 6.93333C26.9577 6.93333 27.7333 6.15769 27.7333 5.2V1.73333C27.7333 0.775646 26.9577 0 26 0C25.0423 0 24.2667 0.775646 24.2667 1.73333V5.2Z" fill="black"/>
<path fill-rule="evenodd" clip-rule="evenodd" d="M8.66667 26C8.66667 16.4276 16.4276 8.66669 26 8.66669C35.5724 8.66669 43.3333 16.4276 43.3333 26C43.3333 35.5725 35.5724 43.3334 26 43.3334C16.4276 43.3334 8.66667 35.5725 8.66667 26ZM24.2667 16.4664C24.2667 15.5087 25.0423 14.7331 26 14.7331C32.2228 14.7331 37.2664 19.7771 37.2664 25.9995C37.2664 32.2218 32.2224 37.2659 26 37.2659C25.0423 37.2659 24.2667 36.4902 24.2667 35.5325V16.4664Z" fill="black"/>
<path d="M26 52C25.0423 52 24.2667 51.2243 24.2667 50.2667V46.8C24.2667 45.8423 25.0423 45.0667 26 45.0667C26.9577 45.0667 27.7333 45.8423 27.7333 46.8V50.2667C27.7333 51.2243 26.9577 52 26 52Z" fill="black"/>
<path d="M0 26C0 25.0423 0.775646 24.2667 1.73333 24.2667H5.2C6.15769 24.2667 6.93333 25.0423 6.93333 26C6.93333 26.9577 6.15769 27.7333 5.2 27.7333H1.73333C0.775646 27.7333 0 26.9577 0 26Z" fill="black"/>
<path d="M46.8 24.2667C45.8423 24.2667 45.0667 25.0423 45.0667 26C45.0667 26.9577 45.8423 27.7333 46.8 27.7333H50.2667C51.2244 27.7333 52 26.9577 52 26C52 25.0423 51.2244 24.2667 50.2667 24.2667H46.8Z" fill="black"/>
<path d="M7.61558 44.3845C6.93739 43.7084 6.93739 42.61 7.61558 41.9339L10.0661 39.4813C10.7443 38.8052 11.8406 38.8052 12.5188 39.4813C13.1948 40.1595 13.1948 41.2558 12.5188 41.9339L10.0661 44.3845C9.39007 45.0627 8.2916 45.0627 7.61558 44.3845Z" fill="black"/>
<path d="M39.4835 10.0661C38.8053 10.7421 38.8053 11.8406 39.4835 12.5166C40.1595 13.1948 41.2579 13.1948 41.934 12.5166L44.3845 10.0661C45.0627 9.39007 45.0627 8.2916 44.3845 7.61558C43.7085 6.93739 42.61 6.93739 41.934 7.61558L39.4835 10.0661Z" fill="black"/>
<path d="M7.61558 7.61558C8.2916 6.93739 9.39007 6.93739 10.0661 7.61558L12.5188 10.0661C13.1948 10.7443 13.1948 11.8406 12.5188 12.5188C11.8406 13.1948 10.7443 13.1948 10.0661 12.5188L7.61558 10.0661C6.93739 9.39007 6.93739 8.2916 7.61558 7.61558Z" fill="black"/>
<path d="M41.934 39.4834C41.2579 38.8052 40.1595 38.8052 39.4835 39.4834C38.8053 40.1595 38.8053 41.2579 39.4835 41.934L41.934 44.3845C42.61 45.0627 43.7085 45.0627 44.3845 44.3845C45.0627 43.7084 45.0627 42.61 44.3845 41.934L41.934 39.4834Z" fill="black"/>
</svg>
