<svg width="52" height="52" viewBox="0 0 52 52" fill="none" xmlns="http://www.w3.org/2000/svg">
<mask id="mask0_282_1354" style="mask-type:alpha" maskUnits="userSpaceOnUse" x="0" y="0" width="52" height="52">
<circle cx="26" cy="26" r="26" fill="#D9D9D9"/>
</mask>
<g mask="url(#mask0_282_1354)">
<path fill-rule="evenodd" clip-rule="evenodd" d="M25.7722 0C11.5376 0 0 11.5376 0 25.7722C0 40.0067 11.5376 51.5443 25.7722 51.5443C40.0067 51.5443 51.5443 40.0067 51.5443 25.7722C51.5443 11.5376 40.0067 0 25.7722 0ZM32.934 20.1934C32.934 24.1422 29.7326 27.3523 25.7751 27.3523C21.8176 27.3523 18.6162 24.1422 18.6162 20.1934C18.6162 16.2359 21.8176 13.0345 25.7751 13.0345C29.7326 13.0345 32.934 16.2359 32.934 20.1934ZM25.7751 29.8469C32.344 29.8469 37.8245 34.297 39.5089 40.3307C35.9181 43.724 31.093 45.8173 25.7723 45.8173C20.4576 45.8173 15.6328 43.724 12.0413 40.3364C13.7254 34.2971 19.2034 29.8469 25.7751 29.8469Z" fill="black"/>
</g>
</svg>
